<?xml version="1.0" encoding="iso-8859-1"?>
<!-- Generator: Adobe Illustrator 18.0.0, SVG Export Plug-In . SVG Version: 6.00 Build 0)  -->
<!DOCTYPE svg PUBLIC "-//W3C//DTD SVG 1.1//EN" "http://www.w3.org/Graphics/SVG/1.1/DTD/svg11.dtd">
<svg version="1.1" id="_x30_" xmlns="http://www.w3.org/2000/svg" xmlns:xlink="http://www.w3.org/1999/xlink" x="0px" y="0px"
	 viewBox="0 0 512 512" style="enable-background:new 0 0 512 512;" xml:space="preserve">
<g>
	<rect style="opacity:0;fill:#FFFFFF;" width="512" height="512"/>
	<polygon style="opacity:0.1;fill:#231815;" points="512,263.629 512,512 239.77,512 219.136,491.367 123.648,395.878 
		109.568,381.798 104.294,199.373 145.408,158.259 145.869,157.798 187.546,116.122 364.493,116.122 448.307,199.936 
		448.358,199.987 479.437,231.066 	"/>
	<g>
		<g>
			<path style="fill:#FFFFFF;" d="M448.307,199.936c-0.358-1.229-0.768-2.458-1.229-3.687c-0.461-1.229-0.922-2.406-1.485-3.584
				c-1.024-2.304-2.202-4.608-3.533-6.758c-1.997-3.277-4.25-6.349-6.758-9.216c-0.87-0.921-1.741-1.894-2.611-2.765
				c-7.168-7.219-16.077-12.647-26.061-15.667c-5.734-1.792-11.827-2.714-18.176-2.714c-5.683,0-11.162,0.768-16.333,2.151h-0.051
				l0.973-33.024l0.256-8.55H101.888l2.406,83.251l5.274,182.426l0.409,14.08H365.21l0.461-17.356v-0.051l2.918-100.864
				c6.247,2.048,12.903,3.174,19.814,3.174c6.656,0,13.005-1.024,18.995-2.918c1.28-0.41,2.56-0.87,3.789-1.382
				c1.229-0.409,2.457-0.973,3.635-1.536c0.051,0,0.051,0,0.051,0c1.587-0.768,3.174-1.587,4.659-2.457c0.051,0,0.051,0,0.051,0
				c1.536-0.87,3.021-1.843,4.454-2.816c1.434-1.024,2.867-2.048,4.198-3.174h0.051c1.536-1.331,3.021-2.663,4.403-4.045
				c1.434-1.434,2.816-2.918,4.045-4.454c2.56-3.072,4.762-6.4,6.758-9.933c0.051-0.051,0-0.051,0-0.051
				c4.762-8.909,7.526-19.046,7.526-29.849C451.021,211.814,450.099,205.722,448.307,199.936z M409.447,239.207
				c-1.331,1.331-2.765,2.509-4.352,3.635h-0.051c-4.762,3.174-10.496,5.069-16.64,5.069c-3.584,0-6.963-0.614-10.137-1.792
				c-3.123-1.126-6.042-2.816-8.602-4.864l1.331-47.206c0.614-0.41,1.229-0.87,1.894-1.229c0.666-0.358,1.331-0.768,1.997-1.127
				c2.048-1.024,4.198-1.843,6.502-2.406c1.485-0.41,3.021-0.666,4.608-0.768c0.819-0.051,1.638-0.102,2.457-0.102
				c8.192,0,15.616,3.328,21.043,8.755c1.331,1.331,2.509,2.765,3.584,4.352c1.075,1.587,1.997,3.277,2.765,5.12
				c0.358,0.87,0.716,1.792,0.973,2.714c0.87,2.765,1.331,5.734,1.331,8.807c0,5.171-1.28,9.984-3.584,14.182
				C413.235,234.906,411.494,237.21,409.447,239.207z"/>
			<g>
				<g>
					<path style="fill:#64371A;" d="M230.947,272.922c-3.051,7.532-7.002,9.99-12.006,13.1c-5.154,3.206-11.483,7.14-16.038,16.797
						c-15.723-14.415-20.451-41.59-10.042-67.29c12.664-31.268,42.942-48.512,67.629-38.513c0.346,0.14,0.688,0.284,1.025,0.434
						c-3.051,7.519-6.998,9.973-11.998,13.081c-5.542,3.447-12.443,7.736-17.035,19.075c-4.593,11.339-2.622,19.221-1.04,25.553
						C232.87,260.875,233.998,265.39,230.947,272.922z"/>
				</g>
				<g>
					<path style="fill:#64371A;" d="M282.257,271.737c-12.664,31.267-42.942,48.512-67.628,38.513
						c-0.346-0.14-0.688-0.284-1.025-0.434c3.051-7.519,6.999-9.975,11.999-13.084c5.542-3.446,12.443-7.736,17.035-19.075
						c4.593-11.339,2.622-19.222,1.04-25.553c-1.429-5.715-2.556-10.23,0.494-17.762c3.051-7.532,7.002-9.988,12.005-13.097
						c5.154-3.206,11.483-7.14,16.038-16.798C287.938,218.862,292.666,246.037,282.257,271.737z"/>
				</g>
			</g>
		</g>
		<path style="opacity:0.05;fill:#060001;" d="M448.358,199.987l-0.051-0.051c-0.358-1.229-0.768-2.458-1.229-3.687
			c-0.461-1.229-0.922-2.406-1.485-3.584c-1.024-2.355-2.202-4.608-3.533-6.758c-1.946-3.277-4.25-6.349-6.758-9.216
			c-0.87-0.921-1.741-1.894-2.611-2.765c-7.168-7.219-16.077-12.647-26.061-15.667c-5.734-1.792-11.827-2.714-18.176-2.714
			c-5.683,0-11.162,0.768-16.333,2.151l0.922-33.024l0.256-8.55H103.27l42.138,42.137l128.614,128.614l91.648,91.648l0.051,0.051
			l2.918-100.915c6.247,2.048,12.902,3.174,19.814,3.174c6.605,0,12.954-1.024,18.944-2.97c1.331-0.41,2.56-0.819,3.789-1.382
			c1.229-0.409,2.457-0.973,3.635-1.536c0.051,0,0.051,0,0.051,0c1.587-0.768,3.174-1.587,4.659-2.457c0.051,0,0.051,0,0.051,0
			c1.536-0.87,3.021-1.843,4.454-2.816c1.434-1.024,2.867-2.048,4.198-3.174h0.051c1.536-1.331,3.021-2.663,4.403-4.045
			c1.434-1.434,2.816-2.918,4.045-4.454c2.611-3.072,4.864-6.4,6.758-9.933c0.051-0.051,0-0.051,0-0.051
			c4.864-8.857,7.578-19.046,7.578-29.798C451.072,211.866,450.15,205.773,448.358,199.987z M414.567,232.346
			c-1.331,2.56-3.072,4.864-5.12,6.861c-1.331,1.382-2.816,2.611-4.352,3.635h-0.051c-4.762,3.276-10.445,5.12-16.589,5.12
			c-3.584,0-7.014-0.615-10.189-1.844c-3.174-1.075-6.042-2.765-8.602-4.813v-0.051l1.383-47.155c0.614-0.41,1.229-0.819,1.843-1.28
			c0.666-0.358,1.331-0.768,1.997-1.127c2.048-1.024,4.198-1.843,6.502-2.406c1.485-0.41,3.021-0.666,4.608-0.768
			c0.819-0.051,1.638-0.102,2.457-0.102c8.192,0,15.616,3.328,21.043,8.755c1.331,1.331,2.509,2.765,3.584,4.352
			c1.075,1.587,1.997,3.277,2.765,5.12c0.358,0.87,0.716,1.792,0.973,2.714c0.921,2.816,1.382,5.786,1.382,8.857
			C418.202,223.334,416.87,228.147,414.567,232.346z"/>
	</g>
</g>
</svg>
